<svg xmlns="http://www.w3.org/2000/svg" viewBox="0 0 900 560" role="img" aria-labelledby="title desc">
  <title id="title">Magician: a doorway of possibility</title>
  <desc id="desc">A luminous amber doorway opens in a midnight blue wall, with light spilling forward.</desc>
  <rect width="900" height="560" fill="#172950"/>
  <path d="M0 0h900v560H0z" fill="#172950"/>
  <path d="M250 560 365 166h170l115 394Z" fill="#294c78"/>
  <path d="M359 560V238a91 91 0 0 1 182 0v322Z" fill="#efb84b"/>
  <path d="M405 560V246a45 45 0 0 1 90 0v314Z" fill="#fff0b0"/>
  <path d="M450 314 192 560h516Z" fill="#eec56e" opacity=".38"/>
  <g fill="#fff2c7"><circle cx="154" cy="140" r="4"/><circle cx="713" cy="101" r="5"/><circle cx="765" cy="286" r="3"/><circle cx="228" cy="326" r="3"/><circle cx="650" cy="190" r="4"/></g>
  <path d="M450 76v33m-17-17h34" stroke="#fff2c7" stroke-width="5" stroke-linecap="round"/>
</svg>